Run_30002
nRows=4
nColumns=173

# SIMM Motion File Header:
name Run_30002
datacolumns 173
datarows 4
otherdata 1
range 2.81000000 2.84000000
endheader
time	pelvis_tilt	pelvis_list	pelvis_rotation	pelvis_tx	pelvis_ty	pelvis_tz	hip_flexion_r	hip_adduction_r	hip_rotation_r	knee_angle_r	ankle_angle_r	hip_flexion_l	hip_adduction_l	hip_rotation_l	knee_angle_l	ankle_angle_l	lumbar_extension	lumbar_bending	lumbar_rotation	arm_flex_r	arm_add_r	arm_rot_r	elbow_flex_r	pro_sup_r	arm_flex_l	arm_add_l	arm_rot_l	elbow_flex_l	pro_sup_l	subtalar_angle_r	mtp_angle_r	subtalar_angle_l	mtp_angle_l	wrist_flex_r	wrist_dev_r	wrist_flex_l	wrist_dev_l	LASI_tx	LASI_ty	LASI_tz	RASI_tx	RASI_ty	RASI_tz	LPSI_tx	LPSI_ty	LPSI_tz	RPSI_tx	RPSI_ty	RPSI_tz	RTH1_tx	RTH1_ty	RTH1_tz	RTH2_tx	RTH2_ty	RTH2_tz	RTH3_tx	RTH3_ty	RTH3_tz	LTH1_tx	LTH1_ty	LTH1_tz	LTH2_tx	LTH2_ty	LTH2_tz	LTH3_tx	LTH3_ty	LTH3_tz	RTB1_tx	RTB1_ty	RTB1_tz	RTB2_tx	RTB2_ty	RTB2_tz	RTB3_tx	RTB3_ty	RTB3_tz	RLMAL_tx	RLMAL_ty	RLMAL_tz	RMMAL_tx	RMMAL_ty	RMMAL_tz	LTB1_tx	LTB1_ty	LTB1_tz	LTB2_tx	LTB2_ty	LTB2_tz	LTB3_tx	LTB3_ty	LTB3_tz	RCAL_tx	RCAL_ty	RCAL_tz	RTOE_tx	RTOE_ty	RTOE_tz	RMT5_tx	RMT5_ty	RMT5_tz	LCAL_tx	LCAL_ty	LCAL_tz	LTOE_tx	LTOE_ty	LTOE_tz	LMT5_tx	LMT5_ty	LMT5_tz	LACR_tx	LACR_ty	LACR_tz	RACR_tx	RACR_ty	RACR_tz	CLAV_tx	CLAV_ty	CLAV_tz	C7_tx	C7_ty	C7_tz	LPSH_tx	LPSH_ty	LPSH_tz	RUA1_tx	RUA1_ty	RUA1_tz	RUA2_tx	RUA2_ty	RUA2_tz	RUA3_tx	RUA3_ty	RUA3_tz	RLEL_tx	RLEL_ty	RLEL_tz	RMEL_tx	RMEL_ty	RMEL_tz	LUA1_tx	LUA1_ty	LUA1_tz	LUA2_tx	LUA2_ty	LUA2_tz	LUA3_tx	LUA3_ty	LUA3_tz	LLEL_tx	LLEL_ty	LLEL_tz	LMEL_tx	LMEL_ty	LMEL_tz	RFAsuperior_tx	RFAsuperior_ty	RFAsuperior_tz	RFAradius_tx	RFAradius_ty	RFAradius_tz	RFAulna_tx	RFAulna_ty	RFAulna_tz	LFAsuperior_tx	LFAsuperior_ty	LFAsuperior_tz	LFAradius_tx	LFAradius_ty	LFAradius_tz	LFAulna_tx	LFAulna_ty	LFAulna_tz
      2.81000000	     -5.38493818	      1.50576955	     -0.19322666	      0.92457780	      1.04150186	     -0.32072551	     -9.63338015	      5.47482415	     10.45314010	    -14.07813326	     -3.50534799	     40.17977530	      6.12682719	      4.63182373	    -73.39364600	      3.50969582	     -2.95117052	      1.22952217	     15.96413977	    -17.19678876	    -13.53655139	      1.47163833	    128.08473989	     92.97885797	    -37.08666005	    -19.54950422	     -2.25342790	    127.03178307	     89.02277962	      0.00000000	      0.00000000	      0.00000000	      0.00000000	      0.00000000	      0.00000000	      0.00000000	      0.00000000	      0.93284104	      1.08286854	     -0.43018424	      0.93973859	      1.06877530	     -0.20157123	      0.77042484	      1.12304759	     -0.36199683	      0.77382179	      1.11872237	     -0.27277375	      0.79858932	      0.82194508	     -0.16270559	      0.85094473	      0.74045204	     -0.20132886	      0.75561576	      0.65956606	     -0.19946780	      0.90107854	      0.87456370	     -0.48524495	      1.02484686	      0.81575736	     -0.47740911	      1.02456702	      0.70841298	     -0.46687604	      0.70842439	      0.41338411	     -0.26362932	      0.64474382	      0.37805417	     -0.22476928	      0.60755270	      0.25944426	     -0.28019384	      0.51872790	      0.17463626	     -0.27229474	      0.54779266	      0.19220569	     -0.35074986	      1.05440790	      0.49958631	     -0.43319987	      0.92527463	      0.46482136	     -0.45663416	      0.92845280	      0.35355982	     -0.42344121	      0.45488108	      0.18741590	     -0.33701620	      0.62349959	      0.06210587	     -0.33187275	      0.56386771	      0.06161249	     -0.25722188	      0.76096649	      0.28395458	     -0.37472139	      0.93599638	      0.14899271	     -0.41304071	      0.87349858	      0.17028000	     -0.47643652	      0.86738091	      1.59153443	     -0.46078645	      0.93663977	      1.55962070	     -0.15688284	      0.97926609	      1.50542875	     -0.30222610	      0.86884492	      1.59655701	     -0.30074585	      0.78376251	      1.56167661	     -0.44771282	      0.91392889	      1.40629726	     -0.06951779	      0.83412883	      1.35675676	     -0.05882202	      0.85387469	      1.29895285	     -0.02451153	      0.87521392	      1.23325517	     -0.01114012	      0.81379682	      1.22388562	     -0.08126885	      0.75086856	      1.50322573	     -0.51106185	      0.67876942	      1.44459102	     -0.48708599	      0.66272657	      1.41293088	     -0.55361838	      0.63720620	      1.34155927	     -0.58469728	      0.62176829	      1.32679533	     -0.49491317	      0.92301916	      1.20209043	     -0.06408945	      1.03954604	      1.29604254	     -0.19345749	      1.05462299	      1.23023888	     -0.19405422	      0.70152194	      1.27279076	     -0.56075164	      0.86966089	      1.29686311	     -0.51838738	      0.85954222	      1.23085967	     -0.53342131
      2.82000000	     -5.67689826	      1.95932786	      0.01525642	      0.92684368	      1.04923349	     -0.32123873	    -11.58139538	      4.51888320	      9.32546399	    -11.83632297	     -9.74742442	     39.77753449	      6.72239602	      5.11544635	    -67.46608858	      3.34715140	     -2.24907822	      0.68291109	     16.01904552	    -17.45746970	    -13.24894391	      2.68994929	    129.29893845	     93.78233191	    -38.83276323	    -18.08554630	     -3.27352137	    127.81326466	     88.74598211	      0.00000000	      0.00000000	      0.00000000	      0.00000000	      0.00000000	      0.00000000	      0.00000000	      0.00000000	      0.93429720	      1.09199906	     -0.43069008	      0.94212216	      1.07645349	     -0.20261235	      0.77377419	      1.13231535	     -0.36265021	      0.77656753	      1.12674980	     -0.27252876	      0.79343109	      0.83096411	     -0.16170894	      0.84309678	      0.74799957	     -0.19822364	      0.74486932	      0.67063334	     -0.19735325	      0.90164842	      0.88348113	     -0.48556273	      1.02484361	      0.82326115	     -0.47656033	      1.02378215	      0.71531261	     -0.46556286	      0.69335937	      0.42420273	     -0.25763635	      0.62780699	      0.39032405	     -0.22007460	      0.59246763	      0.26983482	     -0.27546609	      0.50331521	      0.18519659	     -0.26884069	      0.53514237	      0.20152947	     -0.34612170	      1.06198671	      0.50274465	     -0.43237253	      0.93659447	      0.45635566	     -0.45557189	      0.94990840	      0.34557023	     -0.42198900	      0.44339251	      0.20456547	     -0.33397039	      0.59744629	      0.06415661	     -0.33092307	      0.53846368	      0.06634097	     -0.25652971	      0.78948884	      0.26110589	     -0.37334833	      0.97583382	      0.14187341	     -0.41095868	      0.91182182	      0.15740490	     -0.47465602	      0.86597365	      1.59921967	     -0.46069409	      0.93732069	      1.56852111	     -0.15793347	      0.97947841	      1.51413232	     -0.30286762	      0.86900972	      1.60451780	     -0.30119692	      0.78255123	      1.57010027	     -0.44584790	      0.91516696	      1.41598775	     -0.06982267	      0.83592196	      1.36601380	     -0.05951760	      0.85581787	      1.30819146	     -0.02512924	      0.87802690	      1.24201337	     -0.01241589	      0.81499753	      1.23306677	     -0.08157391	      0.74790250	      1.51235144	     -0.50702121	      0.67662857	      1.45452986	     -0.47930731	      0.65750979	      1.42291426	     -0.54505415	      0.62994437	      1.35099500	     -0.57458177	      0.61777840	      1.33743431	     -0.48438840	      0.92485511	      1.21246312	     -0.06707547	      1.03637707	      1.31043511	     -0.19809121	      1.05265519	      1.24493287	     -0.20006982	      0.69508949	      1.28259290	     -0.55193484	      0.86465628	      1.30730259	     -0.51571669	      0.85415824	      1.24103404	     -0.52895126
      2.83000000	     -5.95341285	      2.20480347	      0.16240466	      0.92894301	      1.05625682	     -0.32135582	    -13.05841855	      3.94118227	      8.21904591	    -10.47929090	    -14.86274950	     39.11851954	      6.96256859	      5.54675813	    -61.25236885	      3.04121792	     -1.60723604	      0.34339938	     15.96950656	    -17.66787745	    -13.00525216	      3.92577903	    130.28888943	     94.64266673	    -40.53282848	    -16.48236936	     -4.36619655	    128.54704996	     88.57554740	      0.00000000	      0.00000000	      0.00000000	      0.00000000	      0.00000000	      0.00000000	      0.00000000	      0.00000000	      0.93571466	      1.10018885	     -0.43112900	      0.94444392	      1.08363369	     -0.20335655	      0.77692887	      1.14041484	     -0.36291528	      0.77919678	      1.13402099	     -0.27238733	      0.78895999	      0.83955795	     -0.16092104	      0.83647962	      0.75529831	     -0.19477770	      0.73629066	      0.68078677	     -0.19595941	      0.90180108	      0.89128127	     -0.48555351	      1.02400191	      0.82926669	     -0.47579003	      1.02136448	      0.72054268	     -0.46383120	      0.68099456	      0.43427372	     -0.25303371	      0.61372271	      0.40200893	     -0.21662392	      0.57871205	      0.28037676	     -0.27176585	      0.48880692	      0.19720065	     -0.26573642	      0.52247525	      0.21213143	     -0.34226732	      1.06813983	      0.50465859	     -0.43222317	      0.94726180	      0.44704592	     -0.45431236	      0.97106713	      0.33760502	     -0.42050815	      0.43255746	      0.22246513	     -0.33064248	      0.57393709	      0.06752191	     -0.32950494	      0.51472738	      0.07434360	     -0.25585715	      0.81919987	      0.23907668	     -0.37097165	      1.01523523	      0.13624697	     -0.40832472	      0.94997923	      0.14566087	     -0.47202308	      0.86531528	      1.60630244	     -0.46063559	      0.93762833	      1.57662229	     -0.15890656	      0.97950216	      1.52195240	     -0.30340732	      0.86906596	      1.61168793	     -0.30170186	      0.78188762	      1.57806297	     -0.44436862	      0.91583373	      1.42495764	     -0.07015506	      0.83720161	      1.37463261	     -0.05993219	      0.85722121	      1.31666983	     -0.02568299	      0.88006021	      1.25000614	     -0.01358712	      0.81553486	      1.24154024	     -0.08180150	      0.74572180	      1.52097785	     -0.50352379	      0.67535897	      1.46417957	     -0.47189037	      0.65339479	      1.43214320	     -0.53658169	      0.62372726	      1.35975631	     -0.56439388	      0.61485658	      1.34740769	     -0.47387289	      0.92592226	      1.22179622	     -0.06977192	      1.03312309	      1.32312013	     -0.20207228	      1.05033316	      1.25791976	     -0.20497645	      0.68968091	      1.29162183	     -0.54309353	      0.86045072	      1.31680670	     -0.51303416	      0.84958476	      1.25033611	     -0.52465861
      2.84000000	     -6.26196620	      2.18588232	      0.21866382	      0.93075164	      1.06228707	     -0.32106189	    -13.88011283	      3.78841040	      7.17040742	    -10.36147447	    -18.33951744	     38.29977664	      6.78810444	      5.84291573	    -54.84085571	      2.59067757	     -0.97902683	      0.27852574	     15.89354304	    -17.87026758	    -12.83283188	      5.14750665	    131.08222456	     95.38362358	    -42.11756306	    -14.79890072	     -5.45192137	    129.22620776	     88.50207198	      0.00000000	      0.00000000	      0.00000000	      0.00000000	      0.00000000	      0.00000000	      0.00000000	      0.00000000	      0.93710573	      1.10705970	     -0.43128536	      0.94648820	      1.09003813	     -0.20373628	      0.77973806	      1.14718254	     -0.36281483	      0.78163604	      1.14050261	     -0.27231125	      0.78518416	      0.84766726	     -0.16042919	      0.83148758	      0.76216057	     -0.19162056	      0.73042412	      0.68944838	     -0.19517933	      0.90126162	      0.89724945	     -0.48487338	      1.02191218	      0.83322580	     -0.47523979	      1.01702725	      0.72371667	     -0.46167001	      0.67129822	      0.44324633	     -0.25070736	      0.60299372	      0.41276383	     -0.21465888	      0.56578249	      0.29129614	     -0.26933018	      0.47428694	      0.21093025	     -0.26311138	      0.50884419	      0.22420157	     -0.33930895	      1.07292554	      0.50518791	     -0.43243884	      0.95755412	      0.43684885	     -0.45312807	      0.99174865	      0.32986091	     -0.41895979	      0.42126425	      0.24086156	     -0.32740665	      0.55279307	      0.07195311	     -0.32717994	      0.49233371	      0.08568120	     -0.25479468	      0.84956750	      0.21850734	     -0.36756128	      1.05354775	      0.13234964	     -0.40494192	      0.98746522	      0.13527193	     -0.46838151	      0.86515503	      1.61262961	     -0.46064158	      0.93761311	      1.58374108	     -0.15980734	      0.97946910	      1.52873103	     -0.30393280	      0.86901100	      1.61781065	     -0.30228563	      0.78160671	      1.58528129	     -0.44325969	      0.91617165	      1.43285825	     -0.07071351	      0.83808862	      1.38237237	     -0.06002426	      0.85821003	      1.32418085	     -0.02616077	      0.88134380	      1.25707328	     -0.01454468	      0.81541091	      1.24913622	     -0.08186679	      0.74415864	      1.52890839	     -0.50062117	      0.67491605	      1.47318317	     -0.46503734	      0.65023926	      1.44045399	     -0.52842326	      0.61854791	      1.36763369	     -0.55444893	      0.61290538	      1.35640866	     -0.46362497	      0.92629142	      1.22993061	     -0.07204840	      1.02990413	      1.33386773	     -0.20540814	      1.04770347	      1.26897653	     -0.20896137	      0.68528883	      1.29964365	     -0.53453108	      0.85700824	      1.32528264	     -0.51042139	      0.84581441	      1.25858192	     -0.52063995
